<svg xmlns="http://www.w3.org/2000/svg" width="102" height="148" fill="none">
  <g clip-path="url(#a)">
    <path fill="#c7c7c7" fill-rule="evenodd"
      d="M0 68.5V137l29.25-.012c21.882-.009 30.576-.365 34.514-1.413 15.201-4.047 25.787-16.749 28.357-34.028 2.106-14.16-1.925-25.738-12.522-35.965l-6.132-5.919 5.09-5.09c14.454-14.454 10.002-39.995-8.595-49.31C61.053.801 54.378.016 25.25.008L0 0v68.5Zm56.829-47.173c8.791 4.769 9.642 21.944 1.478 29.863l-3.412 3.31-11.948.334L31 55.167v-24.35l15.001.341c16.86.384 17.449.092 11.599-5.758L54.2 22H25v16.5c0 14-.227 16.5-1.5 16.5-1.278 0-1.5-2.676-1.5-18.088V18.824l15.75.349c12.827.284 16.368.684 19.079 2.154ZM88.82 22c.374 1.925.68 7.1.68 11.5 0 6.872-.415 8.819-2.943 13.808-1.618 3.194-4.702 7.397-6.853 9.341l-3.911 3.533 3.354 2.868c1.844 1.578 3.614 2.887 3.933 2.909.855.06 6.297-7.777 8.997-12.959 1.915-3.674 2.35-6.06 2.371-13 .022-7.536-.335-9.237-3.142-15-2.483-5.098-3.02-5.745-2.486-3Zm9.863 18.693c1.116 6.553-3.011 17.315-10.309 26.884-2.411 3.161-2.443 3.388-.826 5.856.925 1.412 1.968 2.549 2.317 2.528 1.336-.082 7.54-9.522 9.297-14.144 2.195-5.778 2.385-16.937.363-21.317l-1.386-3 .544 3.193Zm-39.999 36.25c2.604 1.183 5.225 3.474 6.942 6.068 2.44 3.686 2.76 5.109 2.774 12.328C68.434 112.216 61.53 118 41.351 118H31V87h14.032c9.991 0 15.031.417 17.5 1.449 4.065 1.698 4.28 1.062 1.198-3.551-3.954-5.918-7.312-6.895-23.73-6.897l-14.5-.003.325 20.001c.32 19.68.292 20.001-1.75 20.001-2.036 0-2.075-.407-2.075-21.5V75l16.25.022c13.797.019 16.881.309 20.434 1.921Zm35.388 11.601c4.214 16.174.627 30.026-10.411 40.201C72.466 139.064 63.822 141 28.935 141 14.671 141 3 141.247 3 141.55c0 .302.687 1.877 1.526 3.5L6.051 148l26.725-.008c14.698-.004 29.649-.477 33.224-1.052 27.096-4.356 42.363-29.523 32.904-54.24-1.125-2.94-3.08-6.642-4.345-8.228l-2.299-2.883 1.812 6.955Z"
      clip-rule="evenodd" />
  </g>
  <defs>
    <clipPath id="a">
      <path fill="#fff" d="M0 0h102v148H0z" />
    </clipPath>
  </defs>
</svg>